<svg xmlns="http://www.w3.org/2000/svg" width="204" height="120" fill="#274963">
    <defs>
        <linearGradient id="a" x1="0" y1="1" x2="1" y2="0.5">
            <stop offset="0" stop-color="#274963">
                <animate dur="2s" attributeName="offset" fill="freeze"  from="0" to="1" />
            </stop>
            <stop offset="0" stop-color="transparent">
                <animate dur="2s" attributeName="offset" fill="freeze" from="0" to="1" />
            </stop>
        </linearGradient>
    </defs>
    <g fill-rule="evenodd" clip-rule="evenodd" fill="url(#a)" stroke="#274963" stroke-width="0.2px">
        <path d="m125.072 38.76-11.65 6.056s-4.611-8.361-6.977-12.419c-2.306 1.23-2.49 3.843-1.722 5.349.4.83 14.14 24.836 14.14 24.836s-9.498-.03-13.771 0c-.768 0-1.199-.277-1.567-.922-3.136-5.41-6.332-10.79-9.437-16.23-2.274-3.996-3.135-8.299-2.428-12.848.522-3.443 2.244-6.332 4.672-8.791 1.352-1.352 2.859-2.49 4.611-3.35C104.201 18.81 111.486 15 111.486 15l13.586 23.76Z"/>
        <path d="m90.738 6.609 6.332 10.973s-.584.492-.861.707c-5.195 3.811-8.607 9.774-8.914 16.23-.461 9.282 5.81 17.336 10.266 24.928.554.953 1.722 3.104 1.722 3.104H84.928c-.645 0-1.076-.184-1.383-.768-3.596-6.64-7.47-12.664-8.607-20.287-1.352-9.375.738-19.334 6.609-26.865 2.398-3.074 5.287-5.594 8.484-7.838.184-.123.4-.277.614-.277a.231.231 0 0 0 .093.093Zm38.453 73.616-53.484-.092s1.014-1.875 1.506-2.797c1.783-3.227 3.597-6.424 5.318-9.682.369-.707.83-.892 1.567-.892 4.918.03 9.867 0 14.785 0 7.07 0 14.109 0 21.179-.03.891 0 1.444.215 1.905 1.044 2.244 3.935 4.549 7.839 6.824 11.742l.4.707ZM92.797 5.195 102.664 0l6.516 11.158-9.775 5.164-6.608-11.127ZM11.22 104.846c-.554-1.967-1.6-3.903-4.427-3.903-2.52 0-3.504 1.629-3.504 3.196 0 2.121 1.568 3.166 4.119 4.365 2.551 1.199 5.563 2.551 5.563 5.902 0 3.135-2.92 5.625-7.1 5.625-1.783 0-3.627-.492-4.98-.922-.246-.769-.676-3.197-.891-4.58l1.014-.246c.554 1.844 1.968 4.611 5.318 4.611 2.459 0 3.904-1.384 3.904-3.535 0-2.213-1.69-3.228-4.18-4.457-2.122-1.045-5.349-2.49-5.349-5.871 0-2.859 2.305-5.195 6.578-5.195 1.906 0 3.75.431 4.426.492.123 1.076.246 2.336.523 4.273l-1.015.245Zm24.59 3.597c-.247-.922-.615-1.845-.923-2.213-.338-.492-.83-.738-2.213-.738h-1.383v9.59c0 2.244.154 2.367 2.336 2.582v.861h-7.008v-.861c2.06-.215 2.305-.369 2.305-2.551v-9.621H27.91c-1.845 0-2.183.184-2.552.738-.338.491-.614 1.291-.89 2.213h-.862c.093-.984.246-3.474.277-4.549h.676c.338.491.584.553 1.138.553h8.975c.584 0 .769-.123 1.076-.553h.645c.031.922.154 3.227.277 4.487l-.86.062Zm25.573 10.051h-.707c-2.428 0-3.227-.676-4.18-1.998-.646-.922-1.537-2.398-1.937-3.105-.522-.891-.86-1.106-1.998-1.106h-.768v2.766c0 2.09.276 2.183 2.244 2.429v.86h-6.701v-.86c1.936-.246 2.152-.339 2.152-2.429v-7.592c0-2.213-.338-2.244-2.152-2.397v-.861h6.7c1.507 0 2.552.184 3.474.768.86.554 1.537 1.537 1.537 2.89 0 1.998-1.383 3.166-2.859 3.719.37.645 1.291 2.059 1.937 3.043.768 1.076 1.106 1.568 1.629 2.09.523.553 1.014.769 1.721.953l-.092.83Zm-8.238-7.223c.83 0 1.568-.093 2.152-.492.8-.492 1.137-1.414 1.137-2.521 0-2.213-1.444-3.073-3.135-3.073-1.26 0-1.475.276-1.475 1.137v4.918h1.321v.031Zm28.095 7.223v-.861l.645-.061c.953-.123 1.138-.369.707-1.445l-.86-2.09H76.66a20.532 20.532 0 0 0-.676 1.967c-.338 1.138-.092 1.383.983 1.537l.707.092v.861h-5.502v-.861c1.507-.184 1.845-.368 2.736-2.551l4.488-10.973.891-.123 4.672 11.557c.676 1.752 1.015 1.875 2.46 2.06v.86H81.24v.031Zm-2.06-11.127-2.09 5.471h4.212l-2.121-5.471Zm31.045 1.076c-.246-.922-.614-1.845-.922-2.213-.338-.492-.83-.738-2.213-.738h-1.352v9.59c0 2.244.153 2.367 2.336 2.582v.861h-7.008v-.861c2.059-.215 2.305-.369 2.305-2.551v-9.621h-1.014c-1.845 0-2.183.184-2.552.738-.338.491-.615 1.291-.891 2.213h-.86c.091-.984.245-3.474.276-4.549h.676c.338.491.584.553 1.137.553h8.976c.584 0 .768-.123 1.076-.553h.645c.031.922.154 3.227.277 4.487l-.892.062Zm23.484 6.301c-.154.768-.707 3.104-.891 3.719h-11.035v-.738c2.336-.184 2.489-.245 2.489-2.459v-7.315c0-2.121-.245-2.244-2.059-2.398v-.799h7.1c1.076 0 2.705-.031 3.228-.061.031.553.123 2.121.246 3.473l-.83.092c-.246-.738-.43-1.291-.676-1.69-.4-.584-.769-.738-1.752-.738h-2.183c-.768 0-.83 0-.83.799v4.334h1.261c1.629 0 1.782-.277 2.028-1.844h.83v4.703h-.83c-.307-1.568-.369-1.783-2.028-1.783h-1.261v3.32c0 1.229.185 1.844 1.015 1.967.369.061.799.092 1.659.092 1.753 0 1.968-.154 2.521-.768.338-.369.707-1.045 1.168-2.06l.83.154Zm24.559-2.551c-1.26.246-1.352.307-1.352 1.813v1.752c0 .799.092 1.445.184 1.937-1.383.338-3.104.83-4.825.83-4.795 0-7.869-2.89-7.869-7.131 0-4.918 3.934-7.193 8.145-7.193 1.814 0 3.474.4 4.242.492.062.83.184 2.612.338 3.78l-.86.123c-.646-2.459-1.63-3.442-4.273-3.442-2.736 0-4.949 1.967-4.949 5.871 0 3.227 1.629 6.547 5.41 6.547 1.414 0 2.182-.277 2.182-1.66v-1.844c0-1.414-.153-1.599-2.428-1.845v-.799h6.086v.769h-.031Zm10.667 6.301v-.861c1.567-.184 1.782-.307 1.782-2.459v-7.469c0-2.182-.184-2.336-1.782-2.49v-.861h5.532v.861c-1.629.154-1.782.308-1.782 2.49v7.469c0 2.121.184 2.275 1.782 2.459v.861h-5.532Zm34.795-3.781c-.431 1.445-1.23 3.627-1.722 4.549-.891.154-3.319.738-5.686.738-7.408 0-11.219-4.979-11.219-10.082 0-6.455 4.918-10.42 11.926-10.42 2.551 0 4.703.584 5.717.707.123 1.352.338 3.197.584 4.703l-.953.215c-.615-2.029-1.414-3.35-3.012-3.996-.799-.369-1.937-.522-3.105-.522-5.225 0-7.93 4.057-7.93 8.668 0 5.84 3.443 9.59 8.176 9.59 3.166 0 4.703-1.414 6.271-4.426l.953.276ZM71.527 95.871v-.338c1.045-.092 1.168-.154 1.168-1.137v-4.673c0-1.014-.092-1.045-1.168-1.168v-.338H75v.338c-1.076.093-1.168.154-1.168 1.168v4.673c0 1.014.092 1.045 1.168 1.137v.338h-3.473Zm22.193.092c-.154 0-.308 0-.492-.03-.953-.062-1.445-.277-1.998-1.015-.492-.584-.953-1.352-1.353-1.936-.245-.37-.43-.461-1.075-.461h-.462v1.844c0 .983.154 1.045 1.168 1.137v.338h-3.442v-.338c1.076-.092 1.168-.154 1.168-1.137v-4.672c0-.984-.154-1.045-1.168-1.138v-.338h3.289c.953 0 1.567.093 2.06.4.522.307.89.83.89 1.537 0 1.014-.706 1.629-1.66 2.028.247.37.8 1.138 1.169 1.691.492.615.738.922 1.014 1.199.338.338.646.46.953.553l-.061.338Zm-4.765-3.811c.677 0 1.107-.093 1.414-.338.492-.338.707-.8.707-1.445 0-1.26-.922-1.721-1.906-1.721-.368 0-.584.061-.676.123-.123.092-.153.184-.153.491v2.89h.614Zm19.426-4.088c2.213 0 4.181 1.536 4.181 3.872 0 2.52-1.875 4.088-4.273 4.088-2.49 0-4.272-1.72-4.272-3.903 0-2.09 1.629-4.057 4.364-4.057Zm-.246.43c-1.444 0-2.766 1.106-2.766 3.289 0 2.182 1.322 3.78 3.135 3.78 1.568 0 2.736-1.045 2.736-3.32 0-2.427-1.414-3.75-3.105-3.75Zm24.406.061c-.83.093-1.106.185-1.137.738 0 .369-.031.86-.031 1.967v4.703h-.492l-5.532-6.147v2.92c0 1.045.03 1.598.061 1.936.031.584.338.769 1.291.83v.338h-3.135v-.338c.799-.061 1.106-.246 1.168-.8.031-.368.061-.89.061-1.966v-2.982c0-.338-.03-.522-.246-.768-.245-.308-.522-.37-1.137-.43v-.339h1.937l5.471 5.902v-2.89c0-1.106-.031-1.598-.062-1.936-.03-.522-.338-.707-1.383-.738v-.338h3.197v.338h-.031Zm28.709 2.951h-19.549v1.076h19.549v-1.076Zm-99.221-.276h-19.55v1.075h19.55V91.23Z"/>
    </g>
</svg>
