<svg width="56" height="80" fill="none" xmlns="http://www.w3.org/2000/svg">
    <path d="M27.938 0A27.936 27.936 0 0 0 .002 27.936a27.123 27.123 0 0 0 2.54 11.76c.85 1.566 1.8 3.076 2.844 4.52a43.174 43.174 0 0 1 5.08 8.813 41.118 41.118 0 0 1 1.498 10.158h5.079a46.144 46.144 0 0 0-1.803-11.91 46.882 46.882 0 0 0-5.638-9.956 40.092 40.092 0 0 1-2.54-3.911 21.943 21.943 0 0 1-1.981-9.524 22.946 22.946 0 1 1 45.892 0 21.941 21.941 0 0 1-2.184 9.574 40.1 40.1 0 0 1-2.54 3.911 46.88 46.88 0 0 0-5.613 9.905 46.145 46.145 0 0 0-1.803 11.962h5.08A41.118 41.118 0 0 1 45.41 53.08a43.177 43.177 0 0 1 5.08-8.812 41.402 41.402 0 0 0 2.844-4.623 27.122 27.122 0 0 0 2.54-11.758A27.937 27.937 0 0 0 27.938 0Z" fill="#C3B18D"/>
    <path d="M29.538 33.676a2.032 2.032 0 0 0-2.87 0l-7.619 7.62 7.264 7.949v14.07h4.165V47.618l-5.689-6.222 4.8-4.8a2.032 2.032 0 0 0-.05-2.92ZM42.82 68.317H12.98a2.032 2.032 0 1 0 0 4.064h29.84a2.032 2.032 0 0 0 0-4.064ZM38.097 75.936H17.779a2.032 2.032 0 0 0 0 4.064h20.318a2.031 2.031 0 1 0 0-4.064ZM26.211 21.943l-6.933 6.933a2.031 2.031 0 0 0 2.87 2.87l6.933-6.984a2.031 2.031 0 1 0-2.87-2.87v.05Z" fill="#C3B18D"/>
</svg>
