<svg width="81" height="80" fill="none" xmlns="http://www.w3.org/2000/svg">
    <path d="M49.245 52.726a8.115 8.115 0 0 1-7.56-4.46 7.687 7.687 0 0 1-.101-5.747 9.426 9.426 0 0 1 4.914-5.192 8.569 8.569 0 0 1 11.467 3.428 7.56 7.56 0 0 1 .202 5.847 9.297 9.297 0 0 1-5.04 5.217 9.702 9.702 0 0 1-3.882.907Zm1.361-12.374a6.073 6.073 0 0 0-2.52.529 5.368 5.368 0 0 0-2.722 2.923 3.454 3.454 0 0 0 0 2.747 4.562 4.562 0 0 0 6.175 1.588 5.293 5.293 0 0 0 2.822-2.898 3.528 3.528 0 0 0 0-2.772 4.007 4.007 0 0 0-3.755-2.117Z" fill="#C3B18D"/>
    <path d="M35.762 79.995A34.577 34.577 0 0 1 11.09 70.24 34.93 34.93 0 0 1 0 45.04c0-11.09 5.04-22.28 14.315-31.504A45.868 45.868 0 0 1 47.33.003h.303c8.392 0 17.263 3.755 18.246 11.92.53 4.461-1.487 8.746-3.251 12.601-1.386 2.95-2.798 6.024-1.815 7.082.983 1.059 2.52.303 5.268-.504a15.802 15.802 0 0 1 8.518-.907 7.56 7.56 0 0 1 4.713 3.931c2.369 4.613 1.184 11.77-.58 16.483a43.802 43.802 0 0 1-10.686 16.457 48.968 48.968 0 0 1-32.284 12.929ZM47.33 5.119a40.878 40.878 0 0 0-29.46 12.198C9.552 25.457 5.04 35.36 5.04 45.038a30.042 30.042 0 0 0 9.577 21.674c13.56 13.231 36.846 8.947 50.078-3.352a39.116 39.116 0 0 0 9.324-14.491c1.764-4.788 2.117-9.88.807-12.4a2.518 2.518 0 0 0-1.537-1.386 12.248 12.248 0 0 0-5.772.882c-3.301.983-7.56 2.243-10.383-.882-3.327-3.528-1.16-8.19.932-12.601a19.985 19.985 0 0 0 2.798-9.829c-.605-5.04-7.082-7.435-13.257-7.56l-.277.025Z" fill="#C3B18D"/>
    <path d="M55.118 61.799a6.528 6.528 0 0 0-3.831-4.159l-.882-.252-1.16 3.856h.404a2.52 2.52 0 0 1 1.512 1.538c.428 1.512-1.033 3.301-3.176 3.906-2.142.605-4.31-.176-4.738-1.663l-3.88 1.083a7.131 7.131 0 0 0 7.157 4.814 10.08 10.08 0 0 0 2.52-.353 7.56 7.56 0 0 0 6.074-8.77ZM32.94 59.127a6.88 6.88 0 0 0-5.646-4.637l-.68 3.982a2.822 2.822 0 0 1 2.52 1.764c.428 1.487-1.033 3.277-3.175 3.881a4.838 4.838 0 0 1-3.277-.126 2.52 2.52 0 0 1-1.512-1.537v-.328l-3.982.404c.015.348.065.695.151 1.033a6.527 6.527 0 0 0 3.755 4.158 8.468 8.468 0 0 0 3.302.63c.852-.001 1.7-.12 2.52-.352a7.56 7.56 0 0 0 6.024-8.872Zm-10.812-16.18a6.53 6.53 0 0 0-3.831-4.158 7.34 7.34 0 0 0-1.26-.403l-.933 3.931c.217.044.428.112.63.202a2.52 2.52 0 0 1 1.513 1.512c.428 1.512-1.034 3.302-3.176 3.907-2.142.604-4.31-.152-4.738-1.664a2.17 2.17 0 0 1 0-.983l-3.932-.857a6.048 6.048 0 0 0 0 2.924 7.133 7.133 0 0 0 7.208 4.814c.852-.011 1.699-.13 2.52-.353a7.562 7.562 0 0 0 5.999-8.872Zm6.729-19.582a6.528 6.528 0 0 0-3.831-4.158 2.955 2.955 0 0 0-.504-.151l-1.31 3.805a.958.958 0 0 1 .252 0 2.522 2.522 0 0 1 1.512 1.512c.428 1.512-1.034 3.302-3.176 3.907a5.191 5.191 0 0 1-3.226-.126 2.52 2.52 0 0 1-1.512-1.538 2.14 2.14 0 0 1 0-.806l-3.982-.479a5.796 5.796 0 0 0 .151 2.369 6.453 6.453 0 0 0 3.78 4.234 8.493 8.493 0 0 0 3.302.655c.852-.01 1.699-.129 2.52-.353a7.56 7.56 0 0 0 6.024-8.87Zm19.028-11.643a6.452 6.452 0 0 0-3.831-4.159l-.756-.252-1.21 3.856h.378a2.521 2.521 0 0 1 1.512 1.538c.429 1.512-1.033 3.276-3.175 3.88-2.142.606-4.31-.15-4.738-1.637a2.268 2.268 0 0 1 .15-1.462l-3.73-1.462a6.225 6.225 0 0 0-.301 4.108 7.157 7.157 0 0 0 7.157 4.814 9.026 9.026 0 0 0 2.52-.378 7.562 7.562 0 0 0 6.024-8.846Z" fill="#C3B18D"/>
</svg>
