<svg width="51" height="81" fill="none" xmlns="http://www.w3.org/2000/svg">
    <path d="M47.822 75.527H2.99a2.241 2.241 0 1 0 0 4.483h44.83a2.242 2.242 0 1 0 0-4.483Zm-22.416-54.85a6.164 6.164 0 1 0 0 12.328 6.164 6.164 0 0 0 0-12.329Zm0 8.719a2.578 2.578 0 1 1 .48-5.133 2.578 2.578 0 0 1-.48 5.133Z" fill="#C3B18D"/>
    <path d="M49.503 49.637a34.656 34.656 0 0 0-6.388-12.374l-.628-.784c0-.762 0-1.524-.112-2.242C40.85 9.087 27.177.66 26.617.3a2.241 2.241 0 0 0-2.242 0c-.582.359-14.233 8.787-15.69 33.848 0 .717 0 1.457-.113 2.241l-.74.92a34.968 34.968 0 0 0-7.71 24.97 2.242 2.242 0 0 0 2.241 2.04h9.93a36.562 36.562 0 0 0 2.242 5.603 2.242 2.242 0 0 0 1.95 1.144h17.888a2.241 2.241 0 0 0 1.95-1.144 35.864 35.864 0 0 0 2.241-5.603h9.84a2.242 2.242 0 0 0 2.242-2.04 34.857 34.857 0 0 0-1.143-12.642ZM32.96 66.56H17.965A57.072 57.072 0 0 1 14.4 54.837l-4.483.897a92.92 92.92 0 0 0 .964 4.08h-6.41a29.543 29.543 0 0 1 4.034-15.692c0 1.233.157 2.466.292 3.721l4.483-.47a75.944 75.944 0 0 1-.247-12.934C14.2 15.789 22.38 7.473 25.406 4.985 28.5 7.495 36.726 15.79 37.87 34.461a73.657 73.657 0 0 1-4.909 32.1Zm6.994-6.724a83.363 83.363 0 0 0 2.443-15.557 29.522 29.522 0 0 1 3.945 15.557h-6.388Z" fill="#C3B18D"/>
</svg>
