<svg width="92" height="80" fill="none" xmlns="http://www.w3.org/2000/svg">
    <path d="M70.377.029C59.663.029 48.833 3.82 48.833 11.03v4.568a53.87 53.87 0 0 1 5.745.574V11.03c0-1.867 6.004-5.285 15.799-5.285s15.799 3.447 15.799 5.285v29.674c0 1.55-4.194 4.136-11.203 4.97v5.744c8.991-.919 16.948-4.596 16.948-10.772V11.03C91.921 3.82 81.091.03 70.377.03ZM5.745 40.704V11.03c0-1.867 6.004-5.285 15.799-5.285s15.799 3.447 15.799 5.285v5.142a53.845 53.845 0 0 1 5.745-.574V11.03C43.088 3.792 32.258 0 21.544 0 10.829 0 0 3.82 0 11.03v29.674c0 6.205 7.957 9.853 16.948 10.8V45.76c-7.009-.92-11.203-3.505-11.203-5.056Z" fill="#C3B18D"/>
    <path d="M45.96 19.476c-14.16 0-24.847 5.4-24.847 12.581v35.361C21.113 74.6 31.8 80 45.961 80c14.161 0 24.847-5.4 24.847-12.582v-35.36c0-7.182-10.686-12.582-24.847-12.582Zm19.103 22.032c-2.442 2.872-9.824 5.745-19.102 5.745a41.62 41.62 0 0 1-11.49-1.494v4.194a46.91 46.91 0 0 0 11.49 1.35c6.656.27 13.26-1.279 19.102-4.48v8.962c-2.442 2.872-9.824 5.745-19.102 5.745-3.883.03-7.75-.482-11.49-1.523v4.194a46.91 46.91 0 0 0 11.49 1.35c6.656.27 13.26-1.28 19.102-4.481v6.578c0 2.729-7.612 6.837-19.102 6.837s-19.103-4.108-19.103-6.837v-35.59c0-2.73 7.613-6.837 19.103-6.837 11.49 0 19.102 4.107 19.102 6.836v9.451Z" fill="#C3B18D"/>
</svg>
