<svg width="84" height="84" fill="none" xmlns="http://www.w3.org/2000/svg">
    <path fill-rule="evenodd" clip-rule="evenodd" d="M3.515 3.515A12 12 0 0 1 12 0h60a12 12 0 0 1 12 12v43.333a12 12 0 0 1-12 12H57.333v2.476a11.335 11.335 0 0 0 3.321 8.017l2.76 2.76A2 2 0 0 1 62 84H22a2 2 0 0 1-1.414-3.414l2.76-2.76a11.336 11.336 0 0 0 3.32-8.017v-2.476H12a12 12 0 0 1-12-12V12a12 12 0 0 1 3.515-8.485ZM4 12v30a8 8 0 0 0 8 8h60a8 8 0 0 0 8-8V12a8 8 0 0 0-8-8H12a8 8 0 0 0-8 8Zm76 38.944A12 12 0 0 1 72 54H12a12 12 0 0 1-8-3.056v4.39a8 8 0 0 0 8 8h60a8 8 0 0 0 8-8v-4.39Zm-26.667 16.39H30.667v2.475A15.335 15.335 0 0 1 26.79 80H57.21a15.332 15.332 0 0 1-3.876-10.191v-2.476Z" fill="#C3B18D"/>
</svg>
