<svg width="80" height="80" fill="none" xmlns="http://www.w3.org/2000/svg">
    <path d="M39.843 0a39.8 39.8 0 0 0-10.626 1.475l1.925 4.65a35.175 35.175 0 1 1-25 25l-4.65-1.95A40 40 0 1 0 39.843 0Z" fill="#C3B18D"/>
    <path d="M13.467 34.25a27.025 27.025 0 1 0 20.75-20.65l1.55 3.9a23.1 23.1 0 1 1-18.425 18.3l-3.875-1.55Z" fill="#C3B18D"/>
    <path d="M39.842 50.225a10.2 10.2 0 0 1-10-9.2l-4.075-1.7V40a14.226 14.226 0 1 0 14.075-14.225h-.6L40.917 30a10.175 10.175 0 0 1-1.075 20.225Z" fill="#C3B18D"/>
    <path d="M15.343 28.35c.23.235.545.37.875.375h9.125L38.768 42.15a2.519 2.519 0 1 0 3.575-3.55L28.668 25v-8.725a1.25 1.25 0 0 0-.375-.875L14.318 1.425a1.25 1.25 0 0 0-2.125.875v10h-9.85a1.25 1.25 0 0 0-.875 2.125L15.343 28.35Z" fill="#C3B18D"/>
</svg>
