<svg width="29" height="29" viewBox="0 0 29 29" fill="none" xmlns="http://www.w3.org/2000/svg">
<path d="M14.1811 0C9.54365 0 5.74316 3.78914 5.74316 8.41382C5.74316 10.2057 6.31551 11.8711 7.28406 13.2399L13.1513 23.3829C13.9729 24.4564 14.5192 24.2525 15.2024 23.3262L21.674 12.3133C21.8045 12.0768 21.9071 11.8249 21.9965 11.5677C22.4071 10.5669 22.6183 9.49556 22.6182 8.41382C22.6185 3.78914 18.8191 0 14.1811 0ZM14.1811 3.9423C16.6786 3.9423 18.6645 5.92365 18.6645 8.41382C18.6645 10.904 16.6786 12.8845 14.1811 12.8845C11.6838 12.8845 9.69709 10.9043 9.69709 8.41382C9.69709 5.92365 11.6838 3.94258 14.1811 3.94258V3.9423Z" fill="white"/>
</svg>
