<svg width="18" height="18" viewBox="0 0 18 18" fill="none" xmlns="http://www.w3.org/2000/svg">
<path d="M8.72677 0C5.87295 0 3.53418 2.33179 3.53418 5.17776C3.53418 6.28047 3.88639 7.30534 4.48243 8.14764L8.09303 14.3895C8.59866 15.0502 8.93482 14.9247 9.35527 14.3546L13.3378 7.57744C13.4181 7.43188 13.4813 7.27689 13.5363 7.11858C13.789 6.50273 13.9189 5.84344 13.9188 5.17776C13.919 2.33179 11.5809 0 8.72677 0ZM8.72677 2.42604C10.2637 2.42604 11.4858 3.64534 11.4858 5.17776C11.4858 6.71017 10.2637 7.92895 8.72677 7.92895C7.18999 7.92895 5.96737 6.71035 5.96737 5.17776C5.96737 3.64534 7.18999 2.42621 8.72677 2.42621V2.42604Z" fill="#274163"/>
</svg>
