<svg width="71" height="81" fill="none" xmlns="http://www.w3.org/2000/svg">
    <path fill="#274163" d="M0 35.165 35.165 0 70.33 35.165 35.165 70.33z"/>
    <path d="M39.71 23.85c.278.299 5.018 8.564 5.255 9.182-1.473.773-2.957 1.536-4.462 2.319-.938-1.618-1.772-3.236-2.7-4.813-.866.474-.99 1.546-.556 2.267.535.917 1.061 1.845 1.597 2.762 1.123 1.948 2.247 3.885 3.37 5.833.134.237.268.474.412.711-.36.114-4.802.155-5.74.052-.32-.536-.65-1.103-.98-1.66-.896-1.535-1.782-3.08-2.689-4.616-.608-1.03-1-2.123-1.133-3.319-.186-1.535.082-2.968.948-4.256.67-1 1.525-1.803 2.607-2.35a646.82 646.82 0 0 0 3.74-1.937c.094-.051.217-.113.33-.175Z" fill="#C3B18D"/>
    <path d="M34.155 24.849c-.257.206-.515.412-.773.628a8.185 8.185 0 0 0-2.555 3.72c-.722 2.134-.516 4.226.37 6.267.32.731.763 1.411 1.165 2.112.845 1.453 1.7 2.896 2.556 4.349.041.072.051.155.072.237-.402.083-5.008.103-5.874.031-.206-.371-.443-.773-.66-1.175-.505-.917-1.01-1.824-1.514-2.741a11.708 11.708 0 0 1-1.371-4.225c-.144-1.134-.072-2.257-.01-3.39.04-.702.134-1.392.288-2.083a11.943 11.943 0 0 1 1.453-3.607c1.051-1.73 2.443-3.132 4.112-4.266.083-.062.175-.103.258-.144.278.268 2.123 3.452 2.483 4.287ZM25.92 48.975c.949-1.71 1.877-3.4 2.825-5.101h14.84c.989 1.69 1.999 3.411 2.998 5.132-.02.031-.03.052-.04.062-.011.01-.032.03-.042.03-6.791 0-13.593.011-20.384.011-.052 0-.093-.03-.145-.051-.01-.01-.01-.031-.051-.083ZM36.34 18.027c.866 1.495 1.69 2.906 2.546 4.36-1.278.67-2.525 1.308-3.813 1.978-.505-.67-.855-1.432-1.288-2.143-.423-.701-.825-1.412-1.268-2.175 1.278-.68 2.525-1.33 3.823-2.02Z" fill="#C3B18D"/>
    <path d="M14.066 59.34 35.165 80l21.099-20.66" stroke="#274163"/>
</svg>
